<?xml version="1.0" encoding="UTF-8"?>
<svg version="1.1" viewBox="0 0 1600 792" width="1280" height="1280" xmlns="http://www.w3.org/2000/svg">
<path transform="translate(0)" d="m0 0h1600v792h-1600v-792z" fill="#FBFDFD"/>
<path transform="translate(291 104)" d="m0 0c1.04 0 2.07 0.01 3.14 0.01 7 0.04 14 0.22 21 0.55 0.86 0.04 1.71 0.08 2.59 0.12 5.85 0.32 5.85 0.32 6.98 1.44 1.92 0.21 3.84 0.35 5.77 0.47 1.85 0.12 1.85 0.12 3.74 0.23 0.67 0.04 1.33 0.08 2.01 0.12 2.08 0.12 4.15 0.25 6.22 0.38 4.4 0.27 8.8 0.54 13.2 0.8 5.1 0.31 10.2 0.62 15.3 0.94 2.05 0.13 4.09 0.25 6.13 0.37 1.24 0.07 2.48 0.15 3.75 0.23 1.65 0.1 1.65 0.1 3.32 0.2 2.59 0.26 2.59 0.26 4.59 1.26 1.93 0.18 3.87 0.3 5.81 0.39 1.22 0.06 2.45 0.12 3.71 0.18 0.99 0.05 0.99 0.05 1.99 0.1 3.54 0.17 7.07 0.36 10.6 0.55 4.47 0.24 8.94 0.47 13.4 0.68 46.8 2.18 46.8 2.18 64.5 14.1 0.9 0.52 1.8 1.03 2.73 1.55 17.6 10.2 28 28.7 34.3 47.4 1.09 5.16 1.21 10.2 1.27 15.5 0.01 0.95 0.03 1.9 0.04 2.87 0.03 3.17 0.05 6.33 0.06 9.49 0.01 1.09 0.01 2.18 0.02 3.3 0.06 23.3-1.64 46.4-3.61 69.6-0.06 0.69-0.12 1.37-0.18 2.07-0.27 3.21-0.55 6.42-0.84 9.63-0.55 6.24-0.88 12.4-0.76 18.6 8.01 1.48 16 2.51 24.1 3.31 5.77 0.59 5.77 0.59 6.88 1.69 1.71 0.35 3.44 0.64 5.17 0.91 1.06 0.17 2.11 0.33 3.2 0.51 2.24 0.34 4.47 0.69 6.71 1.04 1.06 0.17 2.12 0.34 3.21 0.51 0.98 0.15 1.95 0.3 2.95 0.46 2.77 0.58 5.16 1.48 7.76 2.57 1.45 0.31 2.91 0.58 4.37 0.82 4.65 0.99 8.32 2.71 11.6 6.18 0.93 2.82 0.93 2.82 1 5-5.1 3.01-9.44 3.68-15.2 4.13-0.9 0.07-1.81 0.15-2.75 0.23-11.9 0.97-23.8 1.32-35.8 1.71-3.49 0.11-6.98 0.23-10.5 0.35-2.15 0.08-4.3 0.15-6.44 0.22-0.96 0.03-1.91 0.07-2.89 0.1-0.84 0.03-1.68 0.05-2.55 0.08-1.92-0.02-1.92-0.02-2.91 1.18 0.04 2.56 0.14 5.08 0.31 7.63 0.07 1.13 0.07 1.13 0.14 2.29 0.02 12.4 0.02 12.4 3.55 23.1 0.33 2.26 0.61 4.52 0.86 6.79 0.17 1.41 0.34 2.82 0.5 4.24 0.26 2.22 0.51 4.45 0.76 6.68 0.9 8.07 1.88 15.7 4.88 23.3 8.14-0.55 15.4-4.14 22.6-7.81 2.44-1.19 2.44-1.19 5.44-1.19v-2c0.7-0.26 1.39-0.53 2.11-0.8 1.37-0.53 1.37-0.53 2.76-1.07 0.91-0.35 1.81-0.7 2.74-1.05 2.51-0.96 2.51-0.96 4.39-3.08 1.48-0.67 2.98-1.29 4.5-1.87 0.89-0.35 1.78-0.69 2.7-1.05s1.85-0.71 2.8-1.08c6.77-2.62 6.77-2.62 13.3-5.74 2.87-1.34 4.57-1.36 7.69-1.26-1.81 7.84-5.16 14.6-8.81 21.7-2.6 5.06-5 10.2-7.4 15.4-1.58 3.38-3.19 6.74-4.87 10.1-1.62 3.22-3.07 6.47-4.42 9.81-2.08 5.07-4.25 10.1-6.5 15.1h-2c-0.31 1.86-0.31 1.86-0.63 3.76-1.13 5.04-3.21 9.24-5.6 13.8-2.05 3.98-3.95 8.01-5.84 12.1-2.13 4.58-4.29 9.13-6.62 13.6-1.83 3.58-3.29 7.22-4.69 11-2.19 5.85-4.86 11.3-7.71 16.9-3.61 7.14-6.71 14.5-9.91 21.8h-2c-0.15 0.86-0.15 0.86-0.3 1.73-1.08 5.56-2.75 9.45-5.7 14.3-1.04 2.32-2.04 4.66-3 7-0.42 0.92-0.42 0.92-0.85 1.86-1.54 3.37-2.15 5.36-2.15 9.14-0.98 1.03-1.98 2.03-3 3v3c0.34-0.57 0.67-1.15 1.02-1.74 0.45-0.75 0.89-1.49 1.35-2.26 0.44-0.74 0.88-1.48 1.34-2.24 0.42-0.58 0.85-1.16 1.29-1.76h2c0.23-0.69 0.47-1.39 0.71-2.11 1.54-3.44 3.54-6.09 5.85-9.07 2.98-3.74 2.98-3.74 5.44-7.82h2c0.66-1.64 1.32-3.29 2-5h2c0.27-0.73 0.54-1.47 0.82-2.23 1.12-2.62 2.34-4.65 4.01-6.94 0.55-0.77 1.1-1.53 1.67-2.32 0.58-0.79 1.15-1.57 1.75-2.38 0.56-0.78 1.12-1.55 1.7-2.36 1.65-2.27 3.34-4.53 5.05-6.77 0.53-0.7 1.07-1.4 1.62-2.12 0.51-0.65 1.02-1.29 1.55-1.95 0.45-0.56 0.9-1.13 1.36-1.71 1.47-1.22 1.47-1.22 5.47-1.22 1.63 1.72 1.63 1.72 3.12 3.94 1.97 3.06 1.97 3.06 4.88 5.06 1.02 1.66 2.01 3.33 3 5 1.18 1.57 2.39 3.11 3.62 4.63 1.06 1.31 1.06 1.31 2.15 2.64 0.73 0.91 1.47 1.81 2.23 2.73 0.7 0.88 1.41 1.75 2.13 2.64 3.21 3.95 6.44 7.87 9.74 11.7 0.49 0.57 0.98 1.14 1.48 1.73 0.95 1.11 1.89 2.21 2.84 3.3 2.89 3.38 5.36 6.89 7.81 10.6 0.78 0.79 1.56 1.57 2.37 2.38 3.26 3.25 6.14 6.75 8.63 10.6v2c0.64 0.25 1.28 0.5 1.93 0.76 2.07 1.24 2.07 1.24 2.63 3.31 0.14 0.64 0.29 1.28 0.44 1.93 0.99 0.33 1.98 0.67 3 1 1.37 1.98 2.7 3.98 4 6 1.79 2.27 3.67 4.45 5.56 6.63 8.44 9.8 8.44 9.8 8.44 12.4h2c1.8 2.07 3.47 4.14 5.12 6.32 0.7 0.89 0.7 0.89 1.42 1.8 3.46 4.51 3.46 4.51 3.46 7.88-25.1 0.12-50.2 0.21-75.3 0.26-11.6 0.03-23.3 0.07-35 0.12-10.2 0.05-20.3 0.08-30.5 0.1-5.38 0-10.8 0.02-16.1 0.05-5.06 0.04-10.1 0.05-15.2 0.04-1.86 0-3.72 0.01-5.58 0.03-2.54 0.03-5.07 0.02-7.6 0.01-0.74 0.01-1.48 0.03-2.24 0.04-3.72-0.05-5.25-0.33-7.95-2.97-1.97-3.25-3.63-6.59-5.19-10-0.69-1.52-1.39-3.03-2.09-4.55-0.38-0.81-0.75-1.63-1.14-2.47-2.19-4.74-4.45-9.45-6.7-14.2-0.47-0.98-0.94-1.97-1.43-2.98-3-6.27-6.08-12.5-9.21-18.7-2.47-4.9-4.84-9.84-7.17-14.8-0.49-1.03-0.49-1.03-0.99-2.09-0.91-1.94-1.81-3.89-2.7-5.85-0.3-0.63-0.59-1.26-0.9-1.9-1.52-3.36-2.1-5.33-2.1-9.1-2.74 5.48-0.65 13.3 0.37 19.1 0.19 1.14 0.19 1.14 0.39 2.31 0.57 3.38 1.23 6.6 2.2 9.89 1.09 3.91 1.84 7.82 2.51 11.8 0.19 1.11 0.19 1.11 0.39 2.25 0.54 3.15 1.07 6.3 1.61 9.45 0.39 2.31 0.79 4.62 1.19 6.93 0.12 0.71 0.24 1.43 0.36 2.17 0.35 3.34 0.35 3.34 1.98 6.11 0.4 2.25 0.74 4.5 1.06 6.76 0.18 1.23 0.35 2.46 0.54 3.73 0.33 2.9 0.43 5.61 0.4 8.51-16.3 1.01-32.5 1.12-48.8 1.04-3.67-0.02-7.34-0.03-11-0.04-6.33-0.02-12.7-0.05-19-0.07-9.15-0.04-18.3-0.08-27.4-0.11-14.8-0.05-29.7-0.11-44.5-0.17-14.4-0.05-28.8-0.11-43.2-0.16-1.34-0.01-1.34-0.01-2.7-0.01-4.47-0.02-8.94-0.04-13.4-0.05-37-0.14-73.9-0.28-111-0.43-0.33-0.65-0.66-1.32-1-2 1.26-2.27 2.56-4.4 4-6.56 0.62-0.95 0.62-0.95 1.25-1.91 2.85-4.3 5.88-8.4 9.11-12.4 2.33-2.99 4.35-6.16 6.38-9.35 1.26-1.76 1.26-1.76 3.26-2.76 1-1.99 2-3.99 3-6 1.37-1.94 2.79-3.86 4.25-5.74 3.39-4.45 6.67-8.95 9.86-13.6 1.45-2.08 2.92-4.14 4.4-6.19 0.67-0.92 0.67-0.92 1.34-1.86 0.86-1.19 1.73-2.38 2.6-3.57 2.08-2.89 4-5.8 5.75-8.91 1.5-2.65 2.71-4.09 4.8-6.18 1.19-2.59 1.19-2.59 2-5h2c1.41-1.97 2.71-3.95 4-6l3.06-4.56c1.64-2.45 3.2-4.89 4.69-7.44 1.25-2 1.25-2 3.25-3 1.08-1.95 1.97-3.96 2.9-5.99 1.15-2.11 2.39-3.33 4.1-5.01 2.03-2.84 4-5.71 5.96-8.6 2.04-2.4 2.04-2.4 3.98-3.46 3.18 0.1 4.62 1.71 6.99 3.75 0.84 0.71 1.67 1.41 2.53 2.14 1.26 1.08 1.26 1.08 2.54 2.17 3.48 2.84 7.03 5.56 10.6 8.26 1.05 0.78 2.09 1.56 3.17 2.37 3.91 2.89 7.86 5.73 11.8 8.55 2.38 1.82 2.38 1.82 4.31 3.81 2.48 2.42 5.17 4.12 8.07 6.01 2.75 2.05 5.44 4.18 8.14 6.29 2.69 2.1 5.38 4.08 8.26 5.9 0.86 0.6 1.72 1.2 2.6 1.81v2c0.66 0.21 1.33 0.41 2.02 0.62 4.1 1.91 7.22 4.67 10.7 7.57 5.19 4.32 10.4 8.41 16 12.2 3.43 2.4 6.64 5.04 9.89 7.67 3.4 2.74 6.89 5.34 10.4 7.93-0.33-0.32-0.66-0.66-1-1-0.75-0.9-1.49-1.81-2.25-2.74-2.92-3.51-6.1-6.68-9.4-9.83-1.49-1.44-2.92-2.93-4.35-4.43v-2h-2c-1.33-1.57-1.33-1.57-2.81-3.68-1.81-2.5-3.5-4.63-5.69-6.82-2.64-2.63-4.73-5.4-6.88-8.43-2.02-2.57-4.3-4.77-6.62-7.07-5.29-5.68-10.4-11.5-15.5-17.3-1.24-1.4-2.57-2.72-3.91-4.03-1.56-1.63-1.56-1.63-1.56-3.63h-2c-1.41-1.36-1.41-1.36-3.07-3.31-0.61-0.72-1.22-1.44-1.86-2.19-3.04-3.67-6.06-7.36-9.06-11.1-1.6-1.92-3.22-3.67-5.01-5.42-5-5.53-5-5.53-5-8-0.58-0.22-1.15-0.45-1.74-0.68-2.89-1.68-4.4-3.69-6.45-6.32-3.86-4.86-7.91-9.46-12.2-14-1.65-2-1.65-2-1.65-4h-2c-1.35-1.51-2.63-3.08-3.88-4.68-4.12-5.18-8.47-10-13-14.8-2.13-2.26-4.01-4.41-5.61-7.08-1.79-2.96-3.97-5.02-6.46-7.43-1.94-2.01-3.85-4.06-5.75-6.12-0.52-0.56-1.05-1.13-1.58-1.71-4.07-4.43-7.9-9.01-11.6-13.7-2.02-2.49-2.02-2.49-4.4-4.8-3.11-3.11-5.92-6.4-8.76-9.76-1.04-1.23-2.08-2.46-3.13-3.7-0.46-0.53-0.91-1.07-1.38-1.63-1.37-1.6-1.37-1.6-3.03-3.12-1.33-1.43-1.33-1.43-1.33-3.43h-2c-0.25-0.78-0.5-1.56-0.75-2.37-0.96-2.72-0.96-2.72-3.1-3.5-2.76-1.44-4.02-3.21-5.9-5.69-3.31-4.26-6.75-8.32-10.4-12.3-1.8-2.01-3.54-4.05-5.27-6.12-2.27-2.98-2.27-2.98-4.62-4 0.49-1.98 0.49-1.98 1-4 4.79 0.49 8.54 1.16 13 3 1.45 0.34 2.91 0.65 4.37 0.94 2.97 0.62 5.25 1.34 8.06 2.56 3.79 1.6 7.3 2.32 11.3 2.98 2.24 0.52 2.24 0.52 5.24 2.52 2.58 0.69 5.14 1.31 7.75 1.88 1.53 0.35 3.05 0.7 4.58 1.05 0.77 0.17 1.55 0.35 2.35 0.53 3.6 0.84 7.18 1.74 10.8 2.67 1.22 0.31 2.44 0.62 3.69 0.95 2.88 0.92 2.88 0.92 4.88 2.92 2.5 0.58 4.97 1.07 7.5 1.5 7.23 1.23 7.23 1.23 9.5 3.5 2.57 0.65 2.57 0.65 5 1-0.02-0.57-0.04-1.14-0.06-1.73-0.16-10.4 0.89-20.7 1.78-31 0.94-11.1 1.49-22.1 1.28-33.3-7.65-1.47-15.3-2.59-23-3.53-2.99-0.47-2.99-0.47-3.99-1.47-1.92-0.27-3.84-0.49-5.76-0.68-1.78-0.18-1.78-0.18-3.59-0.37-2.49-0.25-4.99-0.5-7.49-0.75-5.94-0.62-11.5-1.28-17.2-3.2-0.81-0.22-1.61-0.44-2.44-0.67-5.25-1.58-8.59-3.55-12.6-7.33 1-3 1-3 3.62-4.35 1.12-0.42 2.23-0.84 3.38-1.27 1.09-0.43 2.18-0.85 3.31-1.29 8.44-2.48 17.1-2.22 25.8-2.18h3.72c3.91 0.01 7.81 0.02 11.7 0.03 2.66 0.01 5.31 0.01 7.97 0.02 6.49 0.01 13 0.02 19.5 0.04 0.04-0.89 0.09-1.78 0.13-2.69 1.34-26.4 3.4-52.7 5.6-79 0.27-3.29 0.54-6.59 0.81-9.89 0.43-5.36 0.88-10.7 1.33-16.1 0.17-2.01 0.33-4.03 0.5-6.04 0.22-2.79 0.46-5.58 0.7-8.36 0.06-0.82 0.13-1.64 0.19-2.48 0.39-4.42 1.15-8.23 2.74-12.4 0.2-0.71 0.4-1.43 0.6-2.16 4.14-14.4 15.3-27.5 28.2-34.9 12.4-6.56 23.7-8.15 37.5-8.09z" fill="#020202"/>
<path transform="translate(954 439)" d="m0 0h3.98c0.73-0 1.47-0 2.22-0.01 2.46 0 4.92 0.01 7.39 0.02 1.76-0.01 3.52-0.01 5.28-0.01 4.79-0 9.59 0 14.4 0.01 5.02 0.01 10 0.01 15.1 0.01 8.45 0 16.9 0.01 25.4 0.02 9.74 0.02 19.5 0.02 29.2 0.02 10.4 0 20.8 0.01 31.2 0.02h8.95c4.71 0 9.42 0.01 14.1 0.02h5.16c28.7 0 28.7 0 37.2 3.96 1.11 0.5 2.23 1 3.38 1.52 9.81 5.35 16.6 14.6 21.1 24.7 0.8 1.21 0.8 1.21 1.62 2.44 6.06 11.3 5.55 28 5.63 40.6 0.01 1.27 0.01 1.27 0.02 2.57-0.03 6.01-0.91 11.6-2.27 17.4-0.23 1.01-0.45 2.02-0.68 3.07-1.59 6.24-3.91 11.5-7.32 16.9h-2c-0.17 0.68-0.33 1.36-0.5 2.06-3.61 7.06-11.4 11.9-18.5 14.9-2.4 0.59-4.53 0.84-7 1v2c-3.42 0.77-6.58 1.13-10.1 1.15-1 0.01-1.99 0.02-3.02 0.03-1.63 0-1.63 0-3.29 0.01-1.15 0.01-2.3 0.01-3.48 0.02-2.5 0.02-4.99 0.04-7.48 0.05-3.95 0.02-7.89 0.05-11.8 0.08-9.07 0.06-18.1 0.12-27.2 0.17-8.99 0.06-18 0.12-27 0.18-3.89 0.03-7.78 0.05-11.7 0.07-2.37 0.02-4.74 0.03-7.11 0.05-1.64 0.01-1.64 0.01-3.31 0.01-0.98 0.01-1.97 0.02-2.99 0.03-0.86 0-1.72 0.01-2.61 0.01-1.96-0.08-1.96-0.08-2.95 1.14-0.13 2.21-0.18 4.42-0.21 6.63-0.01 0.69-0.02 1.39-0.03 2.1-0.03 2.3-0.06 4.6-0.08 6.9l-0.06 4.77c-0.06 4.19-0.11 8.39-0.16 12.6-0.05 4.28-0.1 8.55-0.16 12.8-0.1 8.4-0.21 16.8-0.3 25.2-9.37 0.02-18.7 0.04-28.1 0.05-4.36 0.01-8.71 0.01-13.1 0.02-4.19 0.02-8.39 0.02-12.6 0.02-1.61 0.01-3.21 0.01-4.81 0.01-2.24 0.01-4.48 0.01-6.72 0.01-1.28 0-2.55 0.01-3.87 0.01-2.85-0.12-2.85-0.12-3.85-1.12-0.1-1.67-0.13-3.34-0.14-5.01 0-1.08-0.01-2.16-0.01-3.28v-3.63c0-1.26-0.01-2.51-0.01-3.81-0.01-3.45-0.01-6.9-0.01-10.4 0-2.87-0.01-5.75-0.01-8.63-0.01-6.79-0.01-13.6-0.01-20.4 0-7.01-0.01-14-0.02-21-0.02-6.01-0.02-12-0.02-18 0-3.59-0.01-7.19-0.02-10.8-0.01-4.01 0-8.01 0-12 0-1.2-0.01-2.39-0.01-3.63 0-1.08 0-2.17 0.01-3.29v-2.87c0.25-2.26 0.25-2.26 2.25-4.26 7.56-1.47 15.3-1.13 23-1.11 1.51 0 3.02 0 4.53-0.01 4.07 0 8.15 0.01 12.2 0.02 4.27 0 8.54 0 12.8 0.01 8.07 0 16.1 0.01 24.2 0.02 9.19 0.01 18.4 0.01 27.6 0.02 18.9 0.01 37.8 0.03 56.7 0.05l-1-13c-9.4-0.18-18.8-0.35-28.2-0.5-0.73-0.01-1.46-0.03-2.21-0.04-20.9-0.34-41.9-0.5-62.8-0.49h-3.21c-10.6 0.01-21.2 0.02-31.8 0.06-3.97 0.01-7.95 0.02-11.9 0.02-2.77 0.01-5.55 0.02-8.32 0.04-1.66 0-3.32 0-4.98 0.01-0.76 0-1.52 0.01-2.3 0.01-1.76 0-3.52-0.05-5.27-0.11-1.72-1.72-1.14-3.97-1.15-6.32-0.01-1.13-0.01-2.26-0.02-3.43v-3.75c-0.01-1.26-0.01-2.52-0.01-3.81-0.01-2.67-0.01-5.34-0.01-8.01 0-3.42-0.01-6.85-0.03-10.3-0.01-3.26-0.01-6.52-0.01-9.78-0.01-1.24-0.02-2.47-0.03-3.74 0.01-1.14 0.01-2.28 0.01-3.45v-3.04c0.39-3.8 1.57-4.35 5.28-4.65z" fill="#020202"/>
<path transform="translate(360 325)" d="m0 0c1.15 0.05 2.31 0.09 3.5 0.14 1.22 0.06 2.45 0.12 3.71 0.18s2.51 0.11 3.8 0.17c2.52 0.11 5.05 0.23 7.58 0.35 3.16 0.15 6.33 0.28 9.5 0.4 1.68 0.07 3.37 0.14 5.06 0.21 0.77 0.03 1.53 0.05 2.32 0.08 3.64 0.18 6.63 0.36 9.68 2.48 1.43 2.86 1.27 5.5 1.44 8.69 0.63 9.13 2.15 15.6 8.56 22.3 6.11 4.59 11.9 5.2 19.3 5.25 1.11 0.03 1.11 0.03 2.23 0.06 6.45 0.05 11-1.34 16.2-5.5 5.63-6.84 6.86-12.9 7.62-21.7 0.69-3.08 0.69-3.08 2.41-4.74 4.23-2.48 8.93-1.89 13.7-1.9 1.56-0.06 1.56-0.06 3.14-0.11 4.71-0.03 7.55 0.08 11.5 2.75 3.56 5.48 3.51 12.9 4.17 19.2 0.16 1.39 0.32 2.78 0.49 4.17 0.55 4.81 1.07 9.62 1.56 14.4 0.34 4.17 0.34 4.17 1.7 8.08 0.22 1.96 0.39 3.92 0.54 5.88 0.08 1.17 0.17 2.34 0.26 3.54 0.09 1.22 0.18 2.45 0.26 3.71 0.1 1.23 0.19 2.46 0.28 3.73 0.22 3.05 0.45 6.09 0.66 9.14-0.61 0.1-1.23 0.2-1.86 0.31-2.8 0.46-5.59 0.95-8.39 1.44-0.97 0.16-1.93 0.32-2.93 0.48-3.79 0.68-6.99 1.27-10.3 3.27-2.42 3.98-3.43 8.26-4.58 12.8-1.51 5.7-3.05 11.3-5.19 16.8-1.41 3.79-2.49 7.69-3.62 11.6-2.2 7.45-4.54 14.8-7.05 22.2-1.12 3.4-2.11 6.82-3.08 10.3-1.54 4.86-3.32 9.63-5.1 14.4-0.76 2.18-1.38 4.33-1.9 6.58-24.5-3.21-24.5-3.21-35.4-7.18-4.45-1.41-9.01-2.37-13.6-3.37-3.86-0.87-7.35-1.97-11-3.45-2.3-0.54-4.62-1.03-6.94-1.5-4.5-0.9-8.71-2.04-13.1-3.5-3.17-0.86-6.37-1.65-9.56-2.44-0.89-0.22-1.77-0.44-2.69-0.67-4.92-1.22-9.85-2.37-14.8-3.45-4.03-0.95-8.04-1.93-12-3.13-0.86-0.25-1.71-0.5-2.6-0.76-5.35-3.54-6.76-10.3-8.01-16.3-0.15-0.76-0.3-1.52-0.45-2.3-0.32-1.53-0.63-3.07-0.95-4.6-0.15-0.74-0.3-1.48-0.46-2.24-0.68-3.07-1.59-6.08-2.47-9.1-0.84-3.22-1.64-6.45-2.44-9.69-0.22-0.89-0.44-1.78-0.67-2.7-0.43-1.76-0.87-3.52-1.31-5.28-0.69-2.78-1.38-5.55-2.08-8.33-0.91-3.64-1.82-7.28-2.72-10.9-0.45-1.8-0.89-3.6-1.34-5.39-0.32-1.27-0.32-1.27-0.64-2.57-1.52-6.13-3.07-12.2-5.24-18.2-1.79-5.26-2.83-10.6-3.91-16.1-0.36-2.73-0.36-2.73-1.65-3.85-0.4-2.52-0.75-5.03-1.06-7.56-0.14-1.07-0.14-1.07-0.28-2.16l-0.66-5.28c0.99-0.33 1.98-0.66 3-1 2.53 1.73 2.53 1.73 5.38 4.19 0.93 0.8 1.87 1.6 2.83 2.42 0.92 0.79 1.84 1.58 2.79 2.39 0.9 0.72 1.79 1.43 2.72 2.17 2.63 2.11 4.9 4.45 7.28 6.83 3.31 3.04 6.65 6.02 10 9 0.71 0.65 1.42 1.3 2.15 1.96 3.87 3.5 7.75 6.4 12.3 9 1.56 1.04 1.56 1.04 2.56 3.04 1.72-6.15 2.53-12.1 3.06-18.4l0.48-5.37c0.06-0.78 0.13-1.56 0.2-2.37 0.26-1.82 0.26-1.82 1.26-2.82 0.28-1.64 0.49-3.3 0.69-4.95 0.12-1.01 0.24-2.03 0.37-3.07 0.25-2.14 0.5-4.27 0.75-6.41 0.12-1.02 0.25-2.04 0.38-3.08 0.1-0.93 0.21-1.87 0.33-2.83 1.22-6.72 1.22-6.72 4.24-8.97 2.83-0.87 5.13-0.83 8.09-0.7z" fill="#FCFEFE"/>
<path transform="translate(957 286)" d="m0 0c0.9 0.01 1.8 0.01 2.73 0.02 1.43-0.01 1.43-0.01 2.88-0.01 3.22-0.01 6.43 0 9.64 0.01 2.29 0 4.59 0 6.88-0.01 6.25 0 12.5 0.01 18.7 0.02 6.52 0.01 13 0 19.6 0 11 0 21.9 0.01 32.9 0.03 11.3 0.01 22.6 0.02 33.8 0.02h2.11 2.1c12.2 0 24.4 0 36.5 0.01 5.2 0 10.4 0.01 15.6 0.01 6.11 0 12.2 0 18.3 0.01 2.25 0.01 4.5 0.01 6.75 0.01 3.05 0 6.11 0 9.17 0.01 0.9 0 1.8 0 2.73-0.01 6.1 0.03 6.1 0.03 7.22 1.14 0.09 1.81 0.12 3.63 0.11 5.44v3.52c0 1.26-0.01 2.53-0.01 3.83-0.01 1.93-0.01 1.93-0.01 3.89 0 3.43-0.01 6.85-0.02 10.3-0.01 3.49-0.02 6.98-0.02 10.5-0.01 6.86-0.03 13.7-0.05 20.6-7.94 1.1-15.8 1.13-23.8 1.1h-4.43c-3.16-0.01-6.33-0.01-9.49-0.02-5-0.02-10-0.02-15-0.03-10.6-0.01-21.2-0.03-31.8-0.05-11.5-0.02-23-0.04-34.4-0.05-4.97-0.01-9.95-0.02-14.9-0.03-3.09-0.01-6.17-0.01-9.25-0.01-1.44 0-2.87-0.01-4.31-0.01-1.95-0.01-3.9-0.01-5.85-0.01-1.09 0-2.18-0.01-3.31-0.01-2.39-0.15-2.39-0.15-3.44 1.12-0.13 2.21-0.18 4.42-0.21 6.63-0.01 0.7-0.02 1.39-0.03 2.1-0.03 2.3-0.05 4.6-0.08 6.9l-0.06 4.77c-0.06 4.2-0.11 8.39-0.15 12.6-0.05 4.28-0.11 8.56-0.17 12.8-0.1 8.4-0.2 16.8-0.3 25.2-9.63 0.03-19.3 0.04-28.9 0.05-4.47 0.01-8.94 0.02-13.4 0.03-4.31 0.01-8.62 0.02-12.9 0.02-1.64 0-3.29 0-4.94 0.01-2.3 0.01-4.6 0.01-6.91 0.01h-3.97c-2.93-0.12-2.93-0.12-3.93-1.12-0.1-1.66-0.13-3.33-0.14-5 0-1.09 0-2.17-0.01-3.29v-3.63c0-1.26 0-2.51-0.01-3.8-0.01-3.46-0.01-6.91-0.01-10.4 0-2.88 0-5.76-0.01-8.64-0.01-6.78-0.01-13.6-0.01-20.4 0-7.01-0.01-14-0.02-21-0.02-6.01-0.02-12-0.02-18 0-3.6 0-7.19-0.01-10.8-0.02-4-0.01-8.01 0-12-0.01-1.2-0.02-2.4-0.02-3.63 0-1.09 0.01-2.18 0.01-3.3v-2.87c0.57-5.2 4.25-4.5 8.6-4.52z" fill="#020202"/>
<path transform="translate(1210 439)" d="m0 0c1.03-0.03 1.03-0.03 2.09-0.05 2.29-0.06 4.58-0.1 6.86-0.13 0.79-0.01 1.57-0.02 2.38-0.04 4.14-0.06 8.29-0.1 12.4-0.13 3.43-0.03 6.85-0.1 10.3-0.19 4.13-0.11 8.27-0.16 12.4-0.18 1.58-0.02 3.15-0.05 4.72-0.1 12.3-0.4 12.3-0.4 16.8 3.58 2.06 2.79 3.7 5.58 5.33 8.64 1.14 1.64 2.31 3.27 3.5 4.88 3.33 4.78 6.37 9.72 9.4 14.7 5.5 9.01 11.2 17.8 17.6 26.2 1.53 2.21 1.53 2.21 2.53 5.21 2.02 0.73 2.02 0.73 4 1 0.45-0.82 0.91-1.65 1.38-2.5 0.53-0.82 1.07-1.65 1.62-2.5h2c0.27-0.71 0.54-1.43 0.81-2.17 1.21-2.87 2.6-5.46 4.19-8.14 0.52-0.88 1.03-1.77 1.56-2.68 0.48-0.66 0.95-1.32 1.44-2.01h2c0.31-0.95 0.62-1.9 0.94-2.87 1.06-3.13 1.06-3.13 2.06-5.13h2c0.25-0.69 0.5-1.38 0.75-2.09 1.45-3.36 3.24-6.31 5.19-9.41 0.69-1.1 1.38-2.21 2.09-3.34 0.97-1.56 0.97-1.56 1.97-3.16 2.1-3.44 2.1-3.44 4-7h2c0.34-1.08 0.34-1.08 0.69-2.19 1.67-3.58 3.18-5.36 6.31-7.81 3.13-0.69 6.18-0.51 9.38-0.37 0.98 0.02 1.97 0.04 2.98 0.06 2.38 0.05 4.77 0.12 7.15 0.19 5.48 0.16 11 0.24 16.5 0.33 4.3 0.07 8.6 0.15 12.9 0.23 1.07 0.02 2.14 0.04 3.25 0.06 3.08 0.05 6.16 0.12 9.24 0.19 0.94 0.01 1.88 0.03 2.85 0.05 0.87 0.02 1.73 0.04 2.62 0.06 0.76 0.01 1.52 0.03 2.3 0.04 1.86 0.16 1.86 0.16 3.86 1.16-1.2 3.08-2.48 6.06-4 9h-2l-2 6h-2l-2 6h-2c-0.34 1.24-0.34 1.24-0.69 2.5-1.56 4.17-3.54 8-6.31 11.5h-2c-0.25 0.86-0.5 1.72-0.76 2.6-1.33 3.64-3.03 6.57-5.11 9.84-2.82 4.47-5.56 8.95-8.13 13.6h-2c-0.27 0.72-0.54 1.45-0.81 2.19-1.19 2.81-1.19 2.81-2.81 5.44-1.63 2.35-1.63 2.35-1.38 5.37h-3c-0.27 0.9-0.54 1.79-0.82 2.72-1.08 3.01-2.23 5.2-3.99 7.84-2.53 3.85-4.99 7.73-7.4 11.6-0.86 1.39-0.86 1.39-1.73 2.82-1.15 1.87-2.3 3.75-3.44 5.62-2.67 4.35-5.4 8.39-8.62 12.4-0.99 1.92-0.99 1.92-1.62 3.75-1.38 3.25-1.38 3.25-3.38 4.25-2.22 0.16-4.45 0.25-6.68 0.32-0.68 0.02-1.36 0.04-2.06 0.06-2.23 0.07-4.46 0.13-6.7 0.18-0.76 0.02-1.52 0.05-2.31 0.07-14.4 0.39-28.8 0.58-43.2 0.37-0.86-0.01-1.73-0.01-2.62-0.02-2.25-0.03-4.5-0.09-6.75-0.17-1.19-0.03-2.37-0.07-3.59-0.1-4.88-1.14-7.01-4.25-9.81-8.22-0.53-0.86-1.06-1.72-1.6-2.61-0.6-0.96-1.19-1.92-1.81-2.91-0.6-0.98-1.2-1.96-1.82-2.97-1.18-1.88-2.37-3.75-3.56-5.62-0.58-0.92-1.16-1.83-1.76-2.77-1.5-2.33-3.02-4.63-4.55-6.92-2.65-3.95-5.24-7.94-7.82-11.9-0.38-0.59-0.76-1.18-1.15-1.79-2.11-3.29-4.17-6.6-6.16-9.96-3.92-6.57-7.9-13.1-11.9-19.6-1.42-2.29-2.83-4.59-4.24-6.89-0.35-0.57-0.7-1.15-1.06-1.74-0.98-1.59-1.96-3.18-2.93-4.78-1.9-3.03-3.87-6-5.86-8.97-1.75-2.76-3.49-5.54-5.22-8.31-1.75-2.73-1.75-2.73-3.87-5.27-1.68-2.13-2.88-4.04-4.03-6.48-0.47-0.98-0.47-0.98-0.95-1.97-0.31-0.65-0.61-1.3-0.93-1.97-0.66-1.33-1.33-2.67-2-4 2.83-2.83 4.75-2.31 8.71-2.4z" fill="#020202"/>
<path transform="translate(702 212)" d="m0 0h3.91 2.15c2.36-0.01 4.71 0.01 7.06 0.02h4.9c3.42 0 6.84 0.01 10.3 0.02 4.39 0.02 8.79 0.02 13.2 0.02 3.37 0 6.74 0.01 10.1 0.01 1.62 0.01 3.24 0.01 4.86 0.01 2.26 0 4.52 0.01 6.78 0.02 1.93 0.01 1.93 0.01 3.91 0.01 2.87 0.14 2.87 0.14 3.87 1.14 0.1 2.64 0.13 5.26 0.13 7.9v2.54c0 2.83-0.01 5.66-0.01 8.49v6.06c0 5.5-0.01 11-0.01 16.5-0.01 5.75-0.01 11.5-0.01 17.2 0 10.9-0.01 21.8-0.02 32.6-0.01 12.4-0.02 24.8-0.02 37.2-0.02 25.5-0.03 51-0.06 76.5-9.76 0.02-19.5 0.04-29.3 0.05-4.53 0-9.06 0.01-13.6 0.02-4.37 0.01-8.74 0.02-13.1 0.02-1.67 0-3.34 0.01-5.01 0.01-2.33 0.01-4.66 0.01-7 0.01-0.69 0-1.39 0.01-2.11 0.01-4.77-0.01-4.77-0.01-5.89-1.12-0.1-2.62-0.13-5.2-0.13-7.82 0-0.82 0-1.65-0.01-2.51v-8.39c0-2-0.01-3.99-0.01-5.99-0.01-5.44-0.01-10.9-0.01-16.3 0-4.53-0.01-9.07-0.01-13.6-0.01-10.7-0.01-21.4-0.01-32.1 0-11-0.01-22.1-0.03-33.1-0.01-9.47-0.01-18.9-0.01-28.4 0-5.66-0.01-11.3-0.02-17-0.01-5.32-0.01-10.6 0-16 0-1.95 0-3.91-0.01-5.87 0-2.66 0-5.33 0.01-7.99-0.01-0.79-0.01-1.57-0.02-2.38 0.05-7.38 0.05-7.38 5.27-7.81z" fill="#020202"/>
<path transform="translate(860,212)" d="m0 0h73v206h-74c-1.76-1.76-1.13-4.09-1.14-6.43 0-0.79 0-1.57 0.01-2.38-0.01-0.83-0.01-1.66-0.01-2.51-0.01-2.8-0.01-5.6-0.01-8.4 0-1.99 0-3.99-0.01-5.99 0-5.44-0.01-10.9-0.01-16.3 0-4.53 0-9.06-0.01-13.6 0-10.7-0.01-21.4-0.01-32.1 0.01-11-0.01-22.1-0.02-33.1-0.01-9.46-0.02-18.9-0.02-28.4 0-5.66 0-11.3-0.01-17-0.01-5.33-0.01-10.6 0-16 0-1.96-0.01-3.92-0.01-5.88-0.01-2.66 0-5.33 0-7.99 0-0.78-0.01-1.57-0.01-2.37 0.03-5.34 0.03-5.34 2.26-7.57z" fill="#020202"/>
<path transform="translate(1211 211)" d="m0 0c0.87 0 1.74 0.01 2.64 0.01 3.01 0.01 6.02 0.05 9.04 0.08 2.22 0.02 4.45 0.03 6.68 0.04 4.45 0.03 8.91 0.06 13.4 0.09 10.8 0.09 21.5 0.14 32.3 0.18 17.9 0.07 35.9 0.15 53.8 0.25 2.07 0.01 4.13 0.02 6.2 0.03 1.02 0.01 2.05 0.01 3.1 0.02 8.45 0.04 16.9 0.08 25.4 0.12 8.23 0.04 16.5 0.08 24.7 0.13 4.88 0.02 9.76 0.05 14.6 0.07 4.55 0.02 9.09 0.04 13.6 0.07 1.67 0.01 3.34 0.02 5 0.02 2.27 0.01 4.53 0.02 6.79 0.04 1.27 0.01 2.54 0.01 3.84 0.02 2.81 0.14 2.81 0.14 3.81 1.14 0.1 1.81 0.12 3.62 0.12 5.44v3.51c-0.01 1.27-0.01 2.53-0.02 3.83v3.9c-0.01 3.42-0.02 6.85-0.03 10.3-0.01 3.5-0.01 6.99-0.02 10.5-0.01 6.86-0.03 13.7-0.05 20.6-29.8 0.02-59.6 0.04-89.3 0.05h-10.5-2.12c-11.3 0.01-22.7 0.02-34 0.03-11.6 0-23.2 0.01-34.9 0.01-6.53 0-13.1 0.01-19.6 0.01-6.14 0.01-12.3 0.01-18.4 0.01-2.26 0-4.52 0-6.78 0.01h-9.22c-0.91 0-1.81 0-2.75 0.01-6.15-0.02-6.15-0.02-8.38-1.13-0.07-7.25-0.12-14.5-0.15-21.8-0.02-3.37-0.04-6.73-0.07-10.1-0.04-3.87-0.06-7.74-0.07-11.6-0.02-1.21-0.03-2.42-0.05-3.66v-3.4c0-0.99-0.01-1.98-0.02-2.99 0.36-2.49 0.36-2.49 1.37-4.31 3.2-1.9 6.54-1.55 10.2-1.49z" fill="#020202"/>
<path transform="translate(1184,211)" d="m0 0c1.32 2.64 1.12 4.6 1.11 7.55v3.52c0 1.26-0.01 2.52-0.01 3.81 0 1.93 0 1.93-0.01 3.9 0 3.41-0.01 6.83-0.02 10.2-0.01 3.49-0.02 6.97-0.02 10.5-0.01 6.84-0.03 13.7-0.05 20.5-29.9 0.02-59.8 0.04-89.8 0.05h-10.6c-0.7 0.01-1.4 0.01-2.13 0.01-11.4 0-22.8 0.01-34.2 0.02-11.7 0.01-23.4 0.01-35 0.01-6.57 0.01-13.1 0.01-19.7 0.02h-18.5c-2.27 0-4.55 0.01-6.82 0.01h-9.26c-0.91 0-1.82 0.01-2.76 0.01-6.17-0.02-6.17-0.02-7.28-1.13-0.1-1.77-0.13-3.55-0.13-5.33 0-1.14-0.01-2.28-0.01-3.45 0-1.24 0.01-2.48 0.01-3.75 0-1.26 0-2.52-0.01-3.82 0-2.68 0-5.35 0.01-8.02 0.01-3.44 0-6.87 0-10.3-0.01-3.27-0.01-6.53 0-9.8 0-1.24-0.01-2.48-0.01-3.75 0-1.14 0.01-2.28 0.01-3.45v-3.05c0.13-2.28 0.13-2.28 1.13-3.28 2.95-0.11 5.88-0.15 8.83-0.16 0.93 0 1.87-0.01 2.84-0.01 3.16-0.02 6.33-0.03 9.49-0.04 2.26 0 4.52-0.01 6.78-0.03 6.16-0.02 12.3-0.04 18.5-0.06 6.43-0.03 12.9-0.05 19.3-0.08 10.8-0.04 21.6-0.08 32.4-0.12 11.1-0.04 22.2-0.08 33.4-0.13 0.68 0 1.37 0 2.07-0.01 3.44-0.01 6.87-0.02 10.3-0.04 21.5-0.08 43.1-0.17 64.6-0.24 1.08-0.01 2.17-0.01 3.29-0.02 3.02-0.01 6.04-0.02 9.05-0.03 0.89 0 1.77-0.01 2.68-0.01 0.81 0 1.62 0 2.45-0.01h2.11c1.99-0.01 3.98-0.01 5.97-0.01z" fill="#020202"/>
<path transform="translate(799 439)" d="m0 0h14.2 23.8c9.15 0.01 18.3 0.01 27.5 0h23.7 14.1 13.2 4.85c2.19-0 4.39 0 6.59 0.01h3.73c2.73 0.12 2.73 0.12 3.73 1.12 0.1 1.85 0.12 3.69 0.12 5.53v3.58c-0.01 1.29-0.01 2.57-0.02 3.9v3.96c-0.01 3.49-0.02 6.97-0.03 10.4-0.01 3.56-0.01 7.11-0.02 10.7-0.01 6.98-0.03 14-0.05 20.9-29.3 0.05-58.7 0.09-88 0.11h-10.4c-0.69 0-1.38 0.01-2.09 0.01-11.2 0-22.3 0.02-33.5 0.04-11.5 0.02-22.9 0.03-34.4 0.03-6.44 0.01-12.9 0.01-19.3 0.03-6.05 0.01-12.1 0.01-18.2 0.01-2.23 0-4.45 0.01-6.68 0.01-3.03 0.01-6.06 0.01-9.1 0-1.32 0.01-1.32 0.01-2.68 0.02-4.35-0.02-7.73-0.22-11.7-2.26 1.97-15 6.49-33.9 18.6-44.2 1.21-0.9 1.21-0.9 2.44-1.82 0.68-0.7 0.68-0.7 1.36-1.42 1.96-1.88 4.01-3.22 6.33-4.64 0.81-0.5 1.62-1.01 2.45-1.53 6.37-3.12 12.9-3.77 19.9-4.02 0.93-0.04 1.86-0.08 2.82-0.12 15.6-0.54 31.3-0.41 46.9-0.4z" fill="#020202"/>
<path transform="translate(706 587)" d="m0 0c0.9 0.01 1.79 0.01 2.71 0.02 0.95-0.01 1.9-0.01 2.88-0.01 3.19-0.01 6.39 0 9.58 0.01 2.28 0 4.57 0 6.85-0.01 6.21 0 12.4 0.01 18.6 0.02 6.49 0.01 13 0 19.5 0 10.9 0 21.8 0.01 32.7 0.03 11.2 0.01 22.4 0.02 33.7 0.02h2.09 2.09c12.1 0 24.2 0 36.4 0.01 5.17 0 10.3 0.01 15.5 0.01 6.08 0 12.2 0 18.2 0.01 2.24 0.01 4.48 0.01 6.72 0.01 3.04 0 6.08 0 9.12 0.01 0.9 0 1.8 0 2.72-0.01 6.09 0.03 6.09 0.03 8.32 1.14-0.45 5.92-1.2 11.3-3 17-0.31 1.25-0.31 1.25-0.62 2.53-1.95 7.83-4.38 15.8-10.4 21.5-1.49 1.82-2.95 3.64-4.4 5.48-1.6 1.52-1.6 1.52-3.73 2.05-0.62 0.15-1.23 0.31-1.87 0.47l-1 3c-2.51 1.35-2.51 1.35-5.69 2.63-1.03 0.42-2.07 0.85-3.14 1.29-5.7 1.95-11.2 2.23-17.2 2.21h-2.39c-2.64 0.01-5.27 0.01-7.9 0-1.89 0-3.78 0.01-5.67 0.01h-15.4c-5.36-0.01-10.7 0-16.1 0-9 0-18 0-27-0.01-10.4 0-20.8 0-31.2 0.01h-26.8-16c-5.02 0-10 0-15-0.01-1.84 0-3.69 0-5.54 0.01-2.51 0-5.01-0.01-7.52-0.01-0.74 0-1.48 0-2.24 0.01-5.02-0.02-5.02-0.02-6.13-1.14-0.11-1.74-0.14-3.48-0.15-5.22 0-1.11-0.01-2.23-0.02-3.38v-3.67c0-1.24-0.01-2.48-0.01-3.75 0-2.62-0.01-5.25-0.01-7.87 0-2.69 0-5.39-0.02-8.09-0.02-3.87-0.02-7.74-0.02-11.6-0.01-1.21-0.02-2.42-0.02-3.67 0-1.12 0-2.23 0.01-3.39-0.01-0.98-0.01-1.97-0.01-2.99 0.55-5.26 4.13-4.59 8.57-4.62z" fill="#020202"/>
<path transform="translate(705 514)" d="m0 0c1.12 0 1.12 0 2.25 0.01 1.19-0.01 1.19-0.01 2.4-0.02 2.65-0.01 5.31-0.01 7.97-0.01l5.7-0.03c5.18-0.02 10.4-0.03 15.5-0.04 3.24 0 6.47-0.01 9.71-0.01 11.3-0.03 22.6-0.04 33.9-0.04 10.5-0.01 21-0.04 31.5-0.08 9.04-0.03 18.1-0.05 27.1-0.05 5.39 0 10.8-0.01 16.2-0.04 5.08-0.02 10.2-0.03 15.2-0.01 1.85 0 3.71-0.01 5.57-0.02 11.9-0.1 23.2 0.35 33 8 5.33 5.46 9.75 11 13.6 17.6 0.35 0.58 0.7 1.16 1.06 1.76 4.44 7.99 6.64 17.4 7.49 26.5 0.09 0.89 0.17 1.78 0.26 2.7 0.09 1.02 0.09 1.02 0.19 2.05-24.6 0.02-49.2 0.04-73.8 0.05-11.4 0.01-22.9 0.02-34.3 0.03-9.96 0.01-19.9 0.01-29.9 0.02-5.27 0-10.6 0-15.8 0.01-4.97 0-9.94 0.01-14.9 0-1.82 0-3.64 0.01-5.46 0.01-2.49 0.01-4.98 0-7.48 0-1.07 0.01-1.07 0.01-2.16 0.01-11.4-0.03-22.7-1.66-31.1-10.1v-2c-0.6-0.27-1.21-0.55-1.83-0.83-8.06-4.34-11.4-14.3-15.2-22.2-0.37-0.62-0.74-1.24-1.13-1.89-1.43-3.45-1.7-7.04-2.12-10.7-0.1-0.78-0.21-1.56-0.31-2.36-0.24-1.99-0.35-4.01-0.44-6.02 2.48-2.48 3.92-2.24 7.3-2.28z" fill="#020202"/>
<path transform="translate(1285 286)" d="m0 0h3.91 2.15c2.36-0.01 4.71 0.01 7.06 0.02h4.9c3.42 0 6.84 0.01 10.3 0.02 4.39 0.02 8.79 0.02 13.2 0.02 3.37 0 6.74 0.01 10.1 0.01 1.62 0.01 3.24 0.01 4.86 0.01 2.26 0 4.52 0.01 6.78 0.02 1.93 0.01 1.93 0.01 3.91 0.01 2.87 0.14 2.87 0.14 3.87 1.14 0.1 1.69 0.13 3.39 0.13 5.09v3.35c-0.01 1.83-0.01 1.83-0.01 3.7v3.87c0 3.51-0.01 7.03-0.01 10.5-0.01 3.67-0.01 7.34-0.01 11 0 6.95-0.01 13.9-0.02 20.8-0.01 7.92-0.02 15.8-0.02 23.7-0.02 16.3-0.03 32.6-0.06 48.8-9.76 0.02-19.5 0.04-29.3 0.05-4.53 0-9.06 0.01-13.6 0.02-4.37 0.01-8.74 0.02-13.1 0.02-1.67 0-3.34 0.01-5.01 0.01-2.33 0.01-4.66 0.01-7 0.01-0.69 0-1.39 0.01-2.11 0.01-4.77-0.01-4.77-0.01-5.89-1.12-0.1-1.67-0.13-3.34-0.13-5.01 0-1.08-0.01-2.16-0.01-3.28v-3.64c0-1.25-0.01-2.51-0.01-3.8-0.01-3.45-0.01-6.9-0.01-10.4 0-2.88-0.01-5.75-0.01-8.63-0.01-6.79-0.01-13.6-0.01-20.4 0-7.01-0.01-14-0.03-21-0.01-6.01-0.01-12-0.01-18 0-3.59-0.01-7.19-0.02-10.8-0.01-4.01 0-8.01 0-12 0-1.2-0.01-2.39-0.02-3.63 0.01-1.09 0.01-2.17 0.02-3.29v-2.87c0.4-3.7 1.66-4.22 5.25-4.51z" fill="#020202"/>
<path transform="translate(788,232)" d="m0 0h2c1.41 1.55 1.41 1.55 3.06 3.75 0.62 0.81 1.23 1.63 1.87 2.46 0.68 0.92 1.36 1.84 2.07 2.79 0.78 1.03 1.55 2.07 2.36 3.13 2.22 2.95 4.43 5.91 6.64 8.87 0.58 0.74 1.17 1.47 1.77 2.23 1.23 1.77 1.23 1.77 1.23 3.77 0.99 0.33 1.98 0.66 3 1 0.93 1.3 1.84 2.62 2.68 3.98 2.39 3.67 5.09 7.12 7.71 10.6 1.61 2.39 1.61 2.39 1.61 4.39 0.99 0.33 1.98 0.66 3 1 0.68 1.32 1.35 2.66 2 4 1.32 1.34 2.66 2.68 4 4 10.8 11.3 11.4 21.2 11.2 36.4 0 2.13 0.01 4.26 0.02 6.39 0.02 5.57-0.02 11.1-0.07 16.7-0.04 5.7-0.03 11.4-0.02 17.1 0.01 11.2-0.04 22.3-0.13 33.4-1.12-0.94-2.24-1.89-3.35-2.84-0.63-0.52-1.25-1.05-1.89-1.59-2.27-2.03-4.14-4.24-6.01-6.63-0.64-0.82-1.29-1.63-1.95-2.48-1.8-2.46-1.8-2.46-3.28-5.02-1.6-2.57-3.37-4.32-5.52-6.44-1.7-2.13-3.36-4.26-5-6.44-0.85-1.12-1.71-2.25-2.56-3.37-0.41-0.54-0.83-1.08-1.25-1.64-2.3-2.99-4.67-5.91-7.05-8.84-4.31-5.33-8.41-10.8-12.4-16.4-1.64-2.32-1.64-2.32-3.43-3.98-2.4-2.47-2.45-5.12-2.45-8.38v-2.46c0-0.88 0-1.77 0.01-2.68v-2.84c0-3.1 0-6.2 0.01-9.3 0-2.15 0.01-4.3 0.01-6.45 0-5.65 0.01-11.3 0.02-17 0.01-5.77 0.02-11.5 0.02-17.3 0.01-11.3 0.03-22.6 0.05-34z" fill="#020202"/>
<path transform="translate(1290 581)" d="m0 0c0.7-0 1.4-0 2.12-0.01 2.32 0 4.64 0.02 6.95 0.04h4.83c3.36 0.01 6.73 0.02 10.1 0.05 4.32 0.02 8.65 0.03 13 0.04 3.31 0 6.63 0.01 9.95 0.02 1.6 0.01 3.19 0.02 4.79 0.02 2.22 0.01 4.45 0.02 6.67 0.04 1.27 0 2.54 0.01 3.84 0.02 2.84 0.14 2.84 0.14 3.84 1.14 0.09 1.99 0.11 3.99 0.11 5.98v3.89c-0.01 1.41-0.01 2.82-0.02 4.22v4.3c0 3.78-0.01 7.56-0.03 11.3-0.01 3.86-0.01 7.71-0.02 11.6-0.01 7.56-0.02 15.1-0.04 22.7-9.77 0.02-19.5 0.04-29.3 0.05-4.53 0-9.06 0.01-13.6 0.02-4.37 0.01-8.74 0.02-13.1 0.02-1.67 0-3.34 0.01-5.01 0.01-2.33 0.01-4.66 0.01-7 0.01-0.69 0-1.39 0.01-2.11 0.01-4.77-0.01-4.77-0.01-5.88-1.12-0.11-1.89-0.15-3.78-0.17-5.67 0-1.21-0.01-2.42-0.02-3.67-0.01-1.32-0.01-2.64-0.02-4 0-1.36-0.01-2.72-0.01-4.08-0.01-2.85-0.02-5.7-0.02-8.56-0.01-3.65-0.03-7.31-0.06-11-0.02-2.81-0.03-5.62-0.03-8.42 0-2.01-0.02-4.01-0.04-6.02 0-1.22 0.01-2.43 0.01-3.69 0-1.07-0.01-2.15-0.01-3.25 0.37-2.67 0.37-2.67 1.45-4.52 2.94-1.77 5.45-1.52 8.85-1.51z" fill="#020202"/>
</svg>
